<svg width="767" height="245" xmlns="http://www.w3.org/2000/svg" version="1.1" enable-background="new 0 0 1024 1024" xml:space="preserve">
 <g>
  <title>Layer 1</title>
  <path fill="#6c6e73" d="m34.92549,7.31373c3.1441,1.54373 2.28691,4.13912 2.29167,6.33084c0.0596,27.4985 0.04764,54.99713 0.05583,82.49572c0.00214,7.14341 0.01624,7.18885 7.27077,7.1893c37.16513,0.00235 74.33083,-0.11724 111.49473,0.09098c5.32172,0.02978 6.43329,-1.99228 6.40595,-6.7323c-0.15857,-27.49793 -0.10577,-54.99716 -0.10086,-82.49594c0.00125,-7.00531 0.04062,-7.0145 6.832,-7.03034c8.16632,-0.01901 16.34729,0.27246 24.49381,-0.13415c5.28131,-0.26361 5.91134,2.21515 5.90429,6.58331c-0.09604,59.66415 -0.06137,119.32849 -0.06253,178.9928c-0.00024,13.83276 -0.15182,27.6676 0.05948,41.49707c0.06619,4.33307 -1.24969,5.90375 -5.69775,5.74267c-8.48877,-0.30743 -17.00827,-0.37652 -25.49122,-0.00329c-5.04721,0.22211 -6.0982,-1.78693 -6.07327,-6.38666c0.15799,-29.16443 0.06681,-58.33014 0.056,-87.49548c-0.0025,-6.75635 -0.37265,-7.16889 -6.98205,-7.17169c-37.33187,-0.01575 -74.66414,0.06909 -111.99511,-0.11536c-4.96536,-0.02454 -6.22467,1.77136 -6.20352,6.39661c0.13498,29.49798 -0.03306,58.99743 0.13137,88.49511c0.0262,4.69843 -1.21877,6.49695 -6.16584,6.28278c-8.65014,-0.37445 -17.33189,-0.25702 -25.99275,-0.04016c-3.99019,0.09985 -5.15282,-1.45655 -5.14911,-5.27771c0.07198,-74.1637 0.068,-148.32746 -0.00737,-222.49112c-0.00377,-3.70926 1.34566,-4.98416 4.97513,-4.92053c9.82987,0.17242 19.66408,0.09658 29.95035,0.19754z" id="svg_1"/>
  <path fill="#6c6e73" d="m515.80726,212.96558c-12.35144,-14.01459 -24.42663,-27.80261 -36.62823,-41.47784c-1.52991,-1.71472 -2.88672,-5.35425 -5.54224,-3.98597c-3.37524,1.73908 -6.98401,4.22071 -7.01404,8.95862c-0.04113,6.49854 -0.02362,12.99744 -0.02154,19.49622c0.00403,12.83105 -0.13111,25.66473 0.10522,38.49158c0.07788,4.22699 -1.42529,5.4992 -5.48938,5.37933c-8.15826,-0.24072 -16.32837,-0.07275 -24.49359,-0.08752c-6.45538,-0.01172 -6.46777,-0.021 -6.4696,-6.7992c-0.01648,-61.8222 -0.03259,-123.64444 -0.03858,-185.46667c-0.0014,-13.99747 0.15754,-27.9965 -0.01788,-41.99149c-0.05139,-4.09857 1.23737,-5.59082 5.41571,-5.46381c8.49066,0.25812 17.00275,0.30143 25.48987,-0.00787c4.51025,-0.16434 5.61255,1.50647 5.59851,5.78568c-0.14093,42.82522 -0.10309,85.65112 -0.08112,128.4768c0.00098,1.94791 -0.44915,3.99005 0.81879,6.16547c2.54694,-0.17011 3.79035,-2.3411 5.33838,-3.86032c20.09589,-19.72186 40.19043,-39.44568 60.16351,-59.29166c2.93097,-2.91229 5.95325,-4.30038 10.1369,-4.20334c10.15931,0.23569 20.32807,0.04099 30.49262,0.09442c1.75445,0.00925 3.64154,-0.49173 5.32544,0.75412c0.18768,2.24539 -1.71161,3.11768 -2.90601,4.33362c-21.9508,22.34677 -43.86346,44.73221 -66.00268,66.89118c-3.42517,3.42816 -3.22125,5.57849 -0.21552,8.99865c22.987,26.15674 45.8263,52.44336 68.69159,78.70685c1.58673,1.82257 3.62262,3.37647 4.27582,5.74738c-1.18726,1.61065 -2.62927,1.13226 -3.87317,1.1358c-11.66449,0.0332 -23.33002,-0.06958 -34.9931,0.06116c-3.11414,0.03491 -5.35156,-0.97315 -7.3656,-3.30676c-6.74903,-7.81971 -13.63135,-15.52442 -20.70008,-23.53443z" id="svg_2"/>
  <path fill="#6c6e73" d="m613.8509,221.94996c-19.48236,-18.65625 -28.74157,-41.50947 -28.66546,-67.78534c0.13293,-45.88987 32.58148,-81.55805 74.84271,-88.83484c50.98816,-8.77942 97.01367,23.62774 105.25861,75.01465c8.16265,50.87457 -24.21143,95.5675 -73.30848,103.56616c-29.25256,4.76581 -55.47833,-1.69647 -78.12738,-21.96063m118.09943,-68.77924c-0.32129,-2.47369 -0.67633,-4.9436 -0.95868,-7.42175c-3.71899,-32.64304 -34.86359,-54.61731 -66.83112,-47.14426c-31.37408,7.33429 -50.92199,39.22363 -43.03845,70.46555c7.46564,29.58563 32.66059,46.87347 62.11304,42.68921c28.89368,-4.10486 48.23114,-27.86121 48.71521,-58.58875z" id="svg_3"/>
  <path fill="#eec736" d="m407.85469,156.8512c-2.72235,40.47864 -33.14533,75.61444 -73.53412,83.97339c-50.18662,10.38672 -98.20895,-19.28729 -110.41476,-69.0893c-10.61225,-43.30029 8.76931,-88.37698 50.28665,-108.25738c18.80682,-9.00555 38.7117,-11.74731 59.22531,-6.94418c41.24759,9.65793 65.92935,35.51587 73.79935,77.03668c1.40118,7.39255 2.35931,15.16605 0.63757,23.28079m-32.25327,7.37518c2.37763,-10.89441 2.48163,-21.747 -0.42923,-32.58374c-8.46036,-31.49688 -40.64712,-51.99905 -71.62231,-45.58261c-31.70273,6.56714 -54.63742,35.70352 -51.0813,69.60752c3.7771,36.01098 40.18665,63.20013 74.61975,54.86462c24.73523,-5.98791 40.94946,-21.04217 48.51309,-46.30579z" id="svg_4"/>
  <path fill="#6c6e73" d="m300.3307,11.13532c19.46533,-0.00024 38.43186,0.11508 57.39502,-0.08634c4.39801,-0.04669 5.93457,1.39301 5.72437,5.73411c-0.28934,5.97592 -0.15387,11.97473 -0.11658,17.96316c0.01807,2.90305 -1.16644,4.11697 -4.18271,4.11157c-32.27417,-0.05798 -64.54849,-0.05328 -96.8226,0.02094c-3.2547,0.00747 -4.40714,-1.28009 -4.33853,-4.44235c0.13348,-6.15238 0.18948,-12.3155 -0.03022,-18.46314c-0.1329,-3.72006 1.30829,-4.93933 4.93946,-4.89603c12.30908,0.14676 24.62097,0.05744 37.43179,0.05808z" id="svg_5"/>
  <path fill="#6c6e73" d="m347.28248,104.37574c4.0568,-0.27207 9.99094,3.95968 10.90641,7.34915c0.59686,2.20975 -1.00681,3.39676 -2.20951,4.6907c-5.8966,6.34394 -11.80236,12.681 -17.81097,18.91831c-2.02698,2.10415 -2.827,4.0737 -1.96784,7.13131c0.74198,2.64069 1.03183,5.81122 0.27478,8.38001c-1.27026,4.3103 0.69431,6.82556 3.31821,9.56665c5.41281,5.65442 10.55954,11.56567 16.03073,17.16113c2.87711,2.94238 3.12393,5.28339 0.30411,8.50495c-7.53101,8.60388 -7.42801,8.69214 -15.3046,0.39416c-4.93103,-5.19488 -9.98022,-10.28131 -14.79306,-15.58288c-1.92993,-2.12586 -3.77276,-2.81617 -6.53482,-1.83027c-3.36706,1.20185 -6.92639,1.25361 -10.28302,-0.02325c-3.40152,-1.29401 -5.79919,-0.58899 -8.28585,2.15466c-5.25403,5.79724 -10.99057,11.15552 -16.28596,16.91736c-3.04061,3.30847 -5.6574,3.78705 -8.62829,0.1568c-0.84131,-1.02801 -1.78299,-1.9884 -2.76712,-2.88232c-2.70374,-2.45606 -2.38233,-4.61811 0.10632,-7.1648c5.93561,-6.07422 11.62201,-12.3913 17.51511,-18.50818c2.09424,-2.17376 3.4158,-4.15942 2.27927,-7.46441c-0.84504,-2.45722 -1.06894,-5.36969 -0.16321,-7.89472c1.39911,-3.90045 -0.03357,-6.40469 -2.76554,-9.12701c-5.65899,-5.63904 -10.90487,-11.69025 -16.41391,-17.48322c-2.67462,-2.81244 -2.79303,-5.07208 0.07459,-8.06344c9.16116,-9.55625 8.49429,-7.63108 15.5,-0.11545c4.65668,4.9957 9.40512,9.90603 14.04465,14.91745c1.71752,1.85522 3.35937,2.73419 6.10446,1.92758c3.35461,-0.98572 7.12488,-1.16473 10.36715,-0.0376c3.9914,1.38755 6.13273,-0.29824 8.58072,-2.88876c6.05924,-6.41208 12.31555,-12.63785 18.80719,-19.10391z" id="svg_6"/>
 </g>

</svg>
